<svg xmlns = "http://www.w3.org/2000/svg" width = "1000" height = "1000">
<g>
<polygon points = "215.828, 321.374 333.007, 519.678 295.589, 656.880 0.000, 798.249 0.000, 389.205 "
fill = "none" stroke = "black"/>
</g>
<g>
<polygon points = "401.938, 1000.000 435.807, 877.224 777.436, 768.524 1000.000, 795.501 1000.000, 1000.000 "
fill = "none" stroke = "black"/>
</g>
<g>
<polygon points = "435.807, 877.224 401.938, 1000.000 0.000, 1000.000 0.000, 798.249 295.589, 656.880 "
fill = "none" stroke = "black"/>
</g>
<g>
<polygon points = "553.502, 25.422 553.502, 274.271 463.396, 454.484 333.007, 519.678 215.828, 321.374 430.077, 0.000 547.147, 0.000 "
fill = "none" stroke = "black"/>
</g>
<g>
<polygon points = "777.436, 768.524 435.807, 877.224 295.589, 656.880 333.007, 519.678 463.396, 454.484 "
fill = "none" stroke = "black"/>
</g>
<g>
<polygon points = "777.436, 768.524 463.396, 454.484 553.502, 274.271 1000.000, 720.769 1000.000, 795.501 "
fill = "none" stroke = "black"/>
</g>
<g>
<polygon points = "553.502, 274.271 553.502, 25.422 1000.000, 471.920 1000.000, 720.769 "
fill = "none" stroke = "black"/>
</g>
<g>
<polygon points = "553.502, 25.422 547.147, 0.000 1000.000, 0.000 1000.000, 471.920 "
fill = "none" stroke = "black"/>
</g>
<g>
<polygon points = "215.828, 321.374 0.000, 389.205 0.000, 0.000 430.077, 0.000 "
fill = "none" stroke = "black"/>
</g>
</svg>
