<svg xmlns = "http://www.w3.org/2000/svg" width = "1000" height = "1000">
<g>
<polygon points = "153.346, 778.528 61.444, 749.458 65.962, 731.036 71.475, 708.556 72.712, 703.513 161.790, 340.295 271.872, 526.589 12.170, 650.794 0.000, 636.084 0.000, 391.144 "
fill = "none" stroke = "black"/>
</g>
<g>
<polygon points = "370.292, 1000.000 406.020, 1000.000 422.869, 1000.000 837.131, 1000.000 837.131, 1000.000 433.163, 1000.000 541.068, 608.843 716.020, 537.272 885.476, 595.041 "
fill = "none" stroke = "black"/>
</g>
<g>
<polygon points = "80.245, 941.988 102.952, 925.572 106.320, 923.138 541.068, 608.843 433.163, 1000.000 226.765, 1000.000 199.251, 989.106 162.873, 969.107 129.288, 944.707 99.027, 916.289 72.565, 884.303 50.321, 849.252 32.646, 811.690 19.818, 772.209 12.039, 731.431 9.432, 690.000 11.891, 650.928 271.872, 526.589 "
fill = "none" stroke = "black"/>
</g>
<g>
<polygon points = "716.020, 537.272 541.068, 608.843 271.872, 526.589 161.790, 340.295 388.653, 0.000 647.539, 0.000 "
fill = "none" stroke = "black"/>
</g>
<g>
<polygon points = ""
fill = "none" stroke = "black"/>
</g>
<g>
<polygon points = ""
fill = "none" stroke = "black"/>
</g>
<g>
<polygon points = "535.381, 180.123 606.667, 70.957 698.506, 15.356 755.310, 18.171 977.148, 120.769 716.020, 537.272 716.020, 52.026 726.462, 49.345 762.060, 44.848 797.940, 44.848 833.538, 49.345 868.291, 58.268 901.652, 71.477 933.094, 88.762 962.122, 109.852 988.278, 134.414 1000.000, 148.584 1000.000, 511.416 "
fill = "none" stroke = "black"/>
</g>
<g>
<polygon points = ""
fill = "none" stroke = "black"/>
</g>
<g>
<polygon points = "280.617, 1000.000 280.617, 580.380 118.491, 757.378 241.712, 505.071 230.538, 480.304 175.553, 473.852 141.536, 461.289 130.198, 455.609 130.198, 455.609 161.790, 340.295 0.000, 391.144 0.000, 0.000 388.653, 0.000 "
fill = "none" stroke = "black"/>
</g>
</svg>
